<?xml version="1.0" encoding="utf-8"?>
<!-- Generator: Adobe Illustrator 17.0.0, SVG Export Plug-In . SVG Version: 6.00 Build 0)  -->
<!DOCTYPE svg PUBLIC "-//W3C//DTD SVG 1.1//EN" "http://www.w3.org/Graphics/SVG/1.1/DTD/svg11.dtd">
<svg version="1.1" id="Layer_1" xmlns="http://www.w3.org/2000/svg" xmlns:xlink="http://www.w3.org/1999/xlink" x="0px" y="0px"
	 width="630px" height="349px" viewBox="0 0 630 349" enable-background="new 0 0 630 349" xml:space="preserve">
<g>
	<g>
		<path fill="#070707" stroke="#109880" stroke-miterlimit="10" d="M133.904,289.492c-0.98,1.76-1.8,0.38-2.54-0.04
			c-8.9-5.08-17.77-10.21-26.66-15.32c-7.37-4.24-14.76-8.45-22.1-12.74c-1.01-0.58-1.66-0.5-2.63,0.06
			c-16.3,9.43-32.63,18.81-48.95,28.2c-0.81,0.47-1.53,1.31-2.35-0.19c-0.8-1.46,0.42-1.57,1.06-1.94
			c16.08-9.32,32.17-18.64,48.31-27.87c1.6-0.91,2.06-1.88,2.06-3.66c0-1.06-0.01-2.12-0.01-3.18h2.5
			c-0.01,1.17-0.03,2.34-0.09,3.51c-0.08,1.71,0.61,2.47,1.95,3.24c15.55,8.92,31.07,17.88,46.6,26.84c0.5,0.28,1.07,0.5,1.47,0.89
			C133.144,287.893,134.894,287.742,133.904,289.492z"/>
		<path fill="#070707" stroke="#109880" stroke-miterlimit="10" d="M200.554,307.482c-5.33-3-10.93-3.06-16.34-0.21
			c-5.15,2.72-6.49,7.59-6.7,12.94c-0.07,1.94,0.23,3.81,0.76,5.64c1.88,6.47,6.9,9.91,14.29,9.81c6.94-0.1,12.08-3.96,13.72-10.32
			C208.164,318.002,205.884,310.482,200.554,307.482z M188.534,331.663c-5.02-1.55-7.87-7.14-6.91-13.58
			c0.95-6.43,5.23-9.76,11.84-9.23c5.88,0.47,9.41,4.79,9.42,11.53C202.884,329.242,196.634,334.163,188.534,331.663z"/>
		<path fill="#070707" stroke="#109880" stroke-miterlimit="10" d="M351.044,252.813c-0.02,11.71-0.04,23.41-0.06,35.12
			c-0.09,0.34-0.25,0.61-0.56,0.76c-0.04,0.03-0.08,0.05-0.13,0.07s-0.1,0.03-0.16,0.03c-0.2,0.04-0.39,0.05-0.57,0.02h-0.01
			c-0.1-0.01-0.2-0.03-0.3-0.07h-0.01c-0.15-0.05-0.29-0.12-0.44-0.21c-0.17-0.13-0.3-0.28-0.42-0.44
			c-0.03-0.05-0.06-0.11-0.09-0.16c-0.07-0.12-0.13-0.25-0.18-0.39c-0.33-1.22-0.22-2.47-0.22-3.7
			c-0.01-10.34-0.03-20.69-0.02-31.03H351.044z"/>
		<path fill="#070707" stroke="#109880" stroke-miterlimit="10" d="M173.094,333.703c0.02,1.86-1.06,1.43-2.06,1.46
			c-1.07,0.04-2.08,0.27-2-1.52c0.15-3.39,0.01-6.79,0.06-10.18c0.01-1.13-0.05-1.8-1.54-1.76c-4.31,0.11-8.62,0.09-12.93,0.01
			c-1.23-0.02-1.51,0.4-1.49,1.55c0.07,3.48-0.08,6.97,0.07,10.44c0.08,1.86-1.06,1.43-2.06,1.46c-1.08,0.05-2.06,0.25-2-1.52
			c0.13-4.39,0.04-8.78,0.04-13.17c0-4.31,0.11-8.62-0.05-12.92c-0.07-1.8,0.8-1.72,2.06-1.76c1.36-0.03,2.11,0.09,2.01,1.81
			c-0.16,2.97-0.01,5.96-0.06,8.94c-0.02,1.13,0.05,1.8,1.54,1.76c4.31-0.12,8.62-0.09,12.92-0.01c1.24,0.02,1.52-0.4,1.49-1.55
			c-0.07-3.15,0.09-6.3-0.06-9.45c-0.09-1.86,1.06-1.42,2.06-1.46c1.08-0.04,2.02-0.24,2,1.52
			C172.994,316.133,172.994,324.922,173.094,333.703z"/>
		<path fill="#0A0A0A" stroke="#109880" stroke-miterlimit="10" d="M246.944,252.813c0.01,10.96,0.01,21.92-0.01,32.88
			c0,0.66-0.04,1.32-0.2,1.96c-0.06,0.22-0.15,0.42-0.27,0.61c-0.02,0.04-0.04,0.08-0.07,0.12c-0.05,0.02-0.1,0.04-0.15,0.07
			c-0.39,0.15-0.69,0.39-0.93,0.69l-0.01,0.01c-0.15,0.18-0.27,0.37-0.39,0.59c-0.01,0.01,0,0.02,0,0.02
			c-0.1,0.2-0.19,0.41-0.27,0.63c-10.57,6.11-21.13,12.23-31.71,18.33c-0.71,0.41-1.41,1.2-2.21-0.15
			c-0.79-1.31,0.11-1.54,0.88-1.98c9.78-5.67,19.54-11.37,29.37-16.95c1.84-1.05,2.6-2.15,2.59-4.39
			c-0.07-10.82-0.08-21.63-0.07-32.44H246.944z"/>
		<path fill="#080808" stroke="#109880" stroke-miterlimit="10" d="M612.714,319.242c-0.89,1.55-1.6,0.48-2.33,0.06
			c-16.68-9.6-33.34-19.21-50.01-28.82c-0.14-0.08-0.31-0.1-0.47-0.14c-0.72-0.69-0.6-1.54-0.44-2.39c0.73-0.84,1.36-0.16,1.95,0.19
			c16.73,9.66,33.46,19.33,50.18,29.02C612.334,317.583,613.614,317.692,612.714,319.242z"/>
		<path fill="#080808" stroke="#109880" stroke-miterlimit="10" d="M454.984,290.363c-16.92,9.76-33.84,19.53-50.77,29.28
			c-0.58,0.34-1.11,0.99-1.94,0.63c-0.6-0.82-0.74-1.65,0-2.47c16.9-9.76,33.81-19.53,50.74-29.25c0.71-0.41,1.39-1.66,2.53-0.65
			C455.664,288.792,455.694,289.663,454.984,290.363z"/>
		<path fill="#080808" stroke="#109880" stroke-miterlimit="10" d="M507.704,320.262c-0.66,0.45-1.05-0.15-1.49-0.4
			c-17.08-9.83-34.15-19.67-51.23-29.5c0.12-0.84-0.34-1.8,0.56-2.46c7.45,4.25,14.91,8.48,22.35,12.75
			c9.94,5.71,19.87,11.45,29.8,17.17C508.454,318.633,508.284,319.453,507.704,320.262z"/>
		<path fill="#080808" stroke="#109880" stroke-miterlimit="10" d="M559.904,290.343c-6.46,3.78-12.9,7.59-19.37,11.33
			c-10.2,5.9-20.41,11.76-30.63,17.62c-0.69,0.4-1.29,1.07-2.2,0.97c-0.01-0.81-0.01-1.63-0.01-2.44
			c9.68-5.64,19.33-11.3,29.03-16.9c7.55-4.37,15.16-8.65,22.74-12.97C560.214,288.633,559.794,289.532,559.904,290.343z"/>
		<path fill="#080808" stroke="#109880" stroke-miterlimit="10" d="M349.854,289.913c-0.05,0.16-0.14,0.32-0.28,0.5
			c-11.36,6.59-22.68,13.23-34.08,19.74c-6.02,3.44-11.87,7.17-18.11,10.2c-0.15-0.16-0.26-0.32-0.34-0.49
			c-0.08-0.15-0.14-0.29-0.17-0.44c-0.1-0.38-0.08-0.78,0.01-1.19c0.01-0.04,0.02-0.09,0.03-0.13c0.05-0.12,0.1-0.24,0.16-0.35
			c0-0.02,0.01-0.04,0.03-0.05c0-0.02,0.01-0.03,0.02-0.05c0.55-0.97,1.54-1.46,2.48-1.99c12.9-7.36,25.74-14.84,38.62-22.24
			c2.58-1.48,5.11-3.05,7.71-4.48c0.75-0.42,1.47-0.97,2.36-1.01c0.12-0.02,0.24-0.01,0.37,0c0.13,0.14,0.26,0.27,0.39,0.41
			c0.19,0.15,0.36,0.31,0.5,0.47h0.01c0.13,0.16,0.24,0.32,0.29,0.49C349.924,289.492,349.924,289.692,349.854,289.913z"/>
		<path fill="#080808" stroke="#109880" stroke-miterlimit="10" d="M402.274,317.802v2.47c-3.18-1.2-5.93-3.18-8.85-4.85
			c-13.71-7.82-27.39-15.68-41.07-23.54c-0.78-0.45-1.52-0.99-2.28-1.49c-0.11-0.17-0.19-0.33-0.22-0.48
			c-0.06-0.22-0.06-0.42,0-0.61c0.05-0.18,0.15-0.35,0.28-0.51c0.13-0.15,0.28-0.3,0.46-0.44c0.13-0.14,0.26-0.28,0.39-0.42
			c13.41,7.79,26.83,15.56,40.23,23.36C394.914,313.433,398.584,315.633,402.274,317.802z"/>
		<path fill="#080808" stroke="#109880" stroke-miterlimit="10" d="M297.044,319.863c-0.04,0.13-0.1,0.27-0.18,0.4
			c-9.72-5.55-19.45-11.07-29.14-16.66c-7.55-4.34-15.06-8.77-22.59-13.16c-0.12-0.24-0.2-0.47-0.22-0.68c0,0-0.01-0.01,0-0.02
			c-0.08-0.57,0.21-1.02,0.91-1.32c0.12,0,0.24,0,0.35-0.01c0.1-0.06,0.2-0.11,0.29-0.15c0.97-0.38,1.67,0.42,2.4,0.84
			c10.26,5.87,20.48,11.82,30.72,17.72c5.02,2.89,10,5.84,15.05,8.68c0.95,0.53,2.15,0.89,2.42,2.14c0.01,0.02,0.01,0.04,0.02,0.06
			v0.05c0.01,0.08,0.02,0.16,0.03,0.25C297.034,318.613,297.224,319.262,297.044,319.863z"/>
		<path fill="#080808" stroke="#109880" stroke-miterlimit="10" d="M128.884,298.183c-0.26,0.45-0.47,1.01-0.86,1.41
			c-0.69,0.72-1.22-0.1-1.71-0.38c-9.17-5.26-18.32-10.55-27.48-15.83c-5.5-3.18-11.01-6.34-16.51-9.53
			c-0.81-0.47-1.85-0.77-0.94-2.18c0.87-1.37,1.57-0.43,2.23-0.05c14.53,8.36,29.04,16.74,43.55,25.14
			C127.774,297.113,128.594,297.262,128.884,298.183z"/>
		<path fill="#292929" stroke="#109880" stroke-miterlimit="10" d="M245.824,288.422c-0.24,0.22-0.41,0.46-0.51,0.72l-0.01,0.01
			c-0.17,0.39-0.2,0.83-0.17,1.29c-0.16-0.02-0.32-0.03-0.49-0.05C244.814,289.603,243.784,288.083,245.824,288.422z"/>
		<path fill="#2E2E2E" stroke="#109880" stroke-miterlimit="10" d="M297.384,320.353c-0.26,0.48-0.39,0.21-0.52-0.09
			c0-0.28,0.01-0.56,0.01-0.84c0-0.4,0.01-0.79,0.01-1.19c0.01-0.18,0.01-0.35,0.01-0.53c0.05-0.03,0.11-0.05,0.16-0.06
			c0.03,0,0.05,0,0.07,0.01c0.08,0,0.17,0.04,0.24,0.12C297.374,318.633,297.374,319.492,297.384,320.353z"/>
		<path fill="#3B3B3B" stroke="#109880" stroke-miterlimit="10" d="M350.424,288.692c-0.25,0.54-0.42,1.09-0.35,1.7
			c-0.17,0.01-0.33,0.02-0.5,0.02c0.06-0.6-0.09-1.14-0.32-1.67h-0.01c-0.05-0.13-0.12-0.27-0.19-0.4c0.51,0.01,1.02,0.01,1.54,0.01
			C350.534,288.462,350.474,288.583,350.424,288.692z"/>
		<path fill="#FFFFFF" stroke="#109880" stroke-miterlimit="10" d="M254.414,280.653c-0.03-7.44-0.02-14.89-0.02-22.34v-5.5h2.57
			v27.83c0,1.01,0.18,1.98-1.42,1.93C253.954,282.522,254.414,281.453,254.414,280.653z"/>
		<path fill="#FFFFFF" stroke="#109880" stroke-miterlimit="10" d="M297.194,306.462c-0.4-0.56-0.51-1,0.22-1.39
			c0.65-0.35,1.25-0.8,1.89-1.17c12.44-7.16,24.88-14.31,37.33-21.44c0.56-0.32,1.21-1.29,1.89-0.53c0.6,0.68,1.57,1.6-0.1,2.49
			c-2.91,1.54-5.71,3.28-8.57,4.92c-10,5.77-20.01,11.54-30.01,17.3c-0.5,0.29-1.01,0.57-1.53,0.86
			C297.574,307.552,297.504,306.883,297.194,306.462z"/>
		<path fill="#FFFEFE" stroke="#109880" stroke-miterlimit="10" d="M348.664,287.933c-0.09,0.05-0.19,0.11-0.28,0.16
			c-11.59,6.74-23.18,13.48-34.78,20.23c-5.42,3.15-10.83,6.3-16.24,9.45l-0.23-0.07h-0.24c-9.31-5.44-18.61-10.91-27.95-16.3
			c-7.54-4.36-15.13-8.63-22.7-12.95c-0.02-0.01-0.05-0.03-0.07-0.04c-0.04-1.15-0.13-2.3-0.13-3.45
			c0.01-10.72,0.03-21.43,0.05-32.15h0.85c0.01,10.96,0.01,21.92-0.01,32.88c0,0.66-0.04,1.32-0.2,1.96
			c-0.06,0.22-0.15,0.42-0.27,0.61c0.97-0.38,1.67,0.42,2.4,0.84c10.26,5.87,20.48,11.82,30.72,17.72c5.02,2.89,10,5.84,15.05,8.68
			c0.95,0.53,2.15,0.89,2.42,2.14c0.03,0,0.05,0,0.07,0.01c0.55-0.97,1.54-1.46,2.48-1.99c12.9-7.36,25.74-14.84,38.62-22.24
			c2.58-1.48,5.11-3.05,7.71-4.48c0.75-0.42,1.47-0.97,2.36-1.01c-0.07-0.12-0.13-0.25-0.18-0.39c-0.33-1.22-0.22-2.47-0.22-3.7
			c-0.01-10.34-0.03-20.69-0.02-31.03h0.7c-0.01,10.8,0,21.6,0,32.39C348.574,286.113,348.634,287.022,348.664,287.933z"/>
		<path fill="#FFFEFE" stroke="#109880" stroke-miterlimit="10" d="M338.424,284.422c-2.91,1.54-5.71,3.28-8.57,4.92
			c-10,5.77-20.01,11.54-30.01,17.3c-0.5,0.29-1.01,0.57-1.53,0.86c-0.74,0.05-0.81-0.62-1.12-1.04c-0.4-0.56-0.51-1,0.22-1.39
			c0.65-0.35,1.25-0.8,1.89-1.17c12.44-7.16,24.88-14.31,37.33-21.44c0.56-0.32,1.21-1.29,1.89-0.53
			C339.124,282.613,340.094,283.532,338.424,284.422z"/>
		<path fill="#FFFEFE" stroke="#109880" stroke-miterlimit="10" d="M255.544,282.573c-1.59-0.05-1.13-1.12-1.13-1.92
			c-0.03-7.44-0.02-14.89-0.02-22.34v-5.5h2.57v27.83C256.964,281.653,257.144,282.623,255.544,282.573z"/>
	</g>
	<path fill="#FFFEFE" stroke="#109880" stroke-miterlimit="10" d="M128.884,298.183c-0.26,0.45-0.47,1.01-0.86,1.41
		c-0.69,0.72-1.22-0.1-1.71-0.38c-9.17-5.26-18.32-10.55-27.48-15.83c-5.5-3.18-11.01-6.34-16.51-9.53
		c-0.81-0.47-1.85-0.77-0.94-2.18c0.87-1.37,1.57-0.43,2.23-0.05c14.53,8.36,29.04,16.74,43.55,25.14
		C127.774,297.113,128.594,297.262,128.884,298.183z"/>
	<path fill="#FFFEFE" stroke="#109880" stroke-miterlimit="10" d="M133.904,289.492c-0.98,1.76-1.8,0.38-2.54-0.04
		c-8.9-5.08-17.77-10.21-26.66-15.32c-7.37-4.24-14.76-8.45-22.1-12.74c-1.01-0.58-1.66-0.5-2.63,0.06
		c-16.3,9.43-32.63,18.81-48.95,28.2c-0.81,0.47-1.53,1.31-2.35-0.19c-0.8-1.46,0.42-1.57,1.06-1.94
		c16.08-9.32,32.17-18.64,48.31-27.87c1.6-0.91,2.06-1.88,2.06-3.66c0-1.06-0.01-2.12-0.01-3.18h2.5c-0.01,1.17-0.03,2.34-0.09,3.51
		c-0.08,1.71,0.61,2.47,1.95,3.24c15.55,8.92,31.07,17.88,46.6,26.84c0.5,0.28,1.07,0.5,1.47,0.89
		C133.144,287.893,134.894,287.742,133.904,289.492z"/>
	<path fill="#FFFEFE" stroke="#109880" stroke-miterlimit="10" d="M173.094,307.353c-0.1,8.78-0.1,17.57,0,26.35
		c0.02,1.86-1.06,1.43-2.06,1.46c-1.07,0.04-2.08,0.27-2-1.52c0.15-3.39,0.01-6.79,0.06-10.18c0.01-1.13-0.05-1.8-1.54-1.76
		c-4.31,0.11-8.62,0.09-12.93,0.01c-1.23-0.02-1.51,0.4-1.49,1.55c0.07,3.48-0.08,6.97,0.07,10.44c0.08,1.86-1.06,1.43-2.06,1.46
		c-1.08,0.05-2.06,0.25-2-1.52c0.13-4.39,0.04-8.78,0.04-13.17c0-4.31,0.11-8.62-0.05-12.92c-0.07-1.8,0.8-1.72,2.06-1.76
		c1.36-0.03,2.11,0.09,2.01,1.81c-0.16,2.97-0.01,5.96-0.06,8.94c-0.02,1.13,0.05,1.8,1.54,1.76c4.31-0.12,8.62-0.09,12.92-0.01
		c1.24,0.02,1.52-0.4,1.49-1.55c-0.07-3.15,0.09-6.3-0.06-9.45c-0.09-1.86,1.06-1.42,2.06-1.46
		C172.174,305.792,173.114,305.593,173.094,307.353z"/>
	<path fill="#FFFEFE" stroke="#109880" stroke-miterlimit="10" d="M200.554,307.482c-5.33-3-10.93-3.06-16.34-0.21
		c-5.15,2.72-6.49,7.59-6.7,12.94c-0.07,1.94,0.23,3.81,0.76,5.64c1.88,6.47,6.9,9.91,14.29,9.81c6.94-0.1,12.08-3.96,13.72-10.32
		C208.164,318.002,205.884,310.482,200.554,307.482z M188.534,331.663c-5.02-1.55-7.87-7.14-6.91-13.58
		c0.95-6.43,5.23-9.76,11.84-9.23c5.88,0.47,9.41,4.79,9.42,11.53C202.884,329.242,196.634,334.163,188.534,331.663z"/>
	<path fill="#FFFEFE" stroke="#109880" stroke-miterlimit="10" d="M612.714,319.242c-0.89,1.55-1.6,0.48-2.33,0.06
		c-16.68-9.6-33.34-19.21-50.01-28.82c-0.14-0.08-0.31-0.1-0.47-0.14c-6.46,3.78-12.9,7.59-19.37,11.33
		c-10.2,5.9-20.41,11.76-30.63,17.62c-0.69,0.4-1.29,1.07-2.2,0.97c-0.66,0.45-1.05-0.15-1.49-0.4
		c-17.08-9.83-34.15-19.67-51.23-29.5c-16.92,9.76-33.84,19.53-50.77,29.28c-0.58,0.34-1.11,0.99-1.94,0.63
		c-3.18-1.2-5.93-3.18-8.85-4.85c-13.71-7.82-27.39-15.68-41.07-23.54c-0.78-0.45-1.52-0.99-2.28-1.49
		c-0.17,0.01-0.33,0.02-0.5,0.02c-11.36,6.59-22.68,13.23-34.08,19.74c-6.02,3.44-11.87,7.17-18.11,10.2
		c-0.26,0.48-0.39,0.21-0.52-0.09c-9.72-5.55-19.45-11.07-29.14-16.66c-7.55-4.34-15.06-8.77-22.59-13.16
		c-0.16-0.02-0.32-0.03-0.49-0.05c-10.57,6.11-21.13,12.23-31.71,18.33c-0.71,0.41-1.41,1.2-2.21-0.15
		c-0.79-1.31,0.11-1.54,0.88-1.98c9.78-5.67,19.54-11.37,29.37-16.95c1.84-1.05,2.6-2.15,2.59-4.39
		c-0.07-10.82-0.08-21.63-0.07-32.44h3.45c0.01,10.96,0.01,21.92-0.01,32.88c0,0.66-0.04,1.32-0.2,1.96
		c-0.06,0.22-0.15,0.42-0.27,0.61c0.97-0.38,1.67,0.42,2.4,0.84c10.26,5.87,20.48,11.82,30.72,17.72c5.02,2.89,10,5.84,15.05,8.68
		c0.95,0.53,2.15,0.89,2.42,2.14c0.03,0,0.05,0,0.07,0.01c0.55-0.97,1.54-1.46,2.48-1.99c12.9-7.36,25.74-14.84,38.62-22.24
		c2.58-1.48,5.11-3.05,7.71-4.48c0.75-0.42,1.47-0.97,2.36-1.01c-0.07-0.12-0.13-0.25-0.18-0.39c-0.33-1.22-0.22-2.47-0.22-3.7
		c-0.01-10.34-0.03-20.69-0.02-31.03h3.17c-0.02,11.71-0.04,23.41-0.06,35.12c13.41,7.79,26.83,15.56,40.23,23.36
		c3.7,2.14,7.37,4.34,11.06,6.51c16.9-9.76,33.81-19.53,50.74-29.25c0.71-0.41,1.39-1.66,2.53-0.65
		c7.45,4.25,14.91,8.48,22.35,12.75c9.94,5.71,19.87,11.45,29.8,17.17c9.68-5.64,19.33-11.3,29.03-16.9
		c7.55-4.37,15.16-8.65,22.74-12.97c0.73-0.84,1.36-0.16,1.95,0.19c16.73,9.66,33.46,19.33,50.18,29.02
		C612.334,317.583,613.614,317.692,612.714,319.242z"/>
</g>
<g>
	<g>
		<path fill="#FFFEFE" stroke="#109880" stroke-miterlimit="10" d="M28.338,104.906c10.176-5.935,20.345-11.881,30.529-17.801
			c6.349-3.691,12.689-7.401,19.105-10.972c1.558-0.868,2.143-1.775,2.135-3.607c-0.078-19.193-0.043-38.387-0.04-57.581
			c0.829,0,1.657,0,2.486,0c0.003,19.4,0.007,38.8,0.006,58.2c0,0.493-0.059,0.985-0.09,1.478c-0.089,0.301-0.201,0.59-0.449,0.8
			c-0.647,0.522-0.377,1.371-0.707,2.009c-3.009,2.668-6.708,4.223-10.126,6.216c-12.594,7.341-25.231,14.607-37.869,21.872
			c-1.067,0.613-2.078,1.409-3.436,1.222C29.068,106.383,28.126,106.128,28.338,104.906z"/>
		<path fill="#FFFEFE" stroke="#109880" stroke-miterlimit="10" d="M243.508,227.398c-18.965-10.243-37.93-20.486-56.896-30.729
			c-16.412-8.864-32.826-17.723-49.233-26.597c-1.075-0.582-2.093-1.27-3.137-1.909c-0.575-1.155-0.495-1.978,1.043-2.066
			c12.067,6.489,24.144,12.96,36.2,19.47c23.235,12.547,46.497,25.043,69.634,37.768c2.795,1.537,4.629,1.375,7.228-0.153
			c15.021-8.836,30.15-17.487,45.248-26.192c0.706-0.407,1.463-0.725,2.196-1.084c0.619-0.29,0.979,0.085,1.321,0.512
			c0.244,0.484,0.28,0.989,0.147,1.509c-0.791,1.506-2.358,2.024-3.694,2.793c-14.423,8.307-28.833,16.638-43.225,24.999
			c-1.218,0.707-2.409,1.461-3.773,1.861c-0.221,0.04-0.447,0.042-0.669,0.016c-0.583-0.16-1.152-0.45-1.789-0.232
			C243.91,227.388,243.709,227.398,243.508,227.398z"/>
		<path fill="#FFFEFE" stroke="#109880" stroke-miterlimit="10" d="M135.286,166.097c-0.953,0.383-1.054,1.196-1.043,2.066
			c-6.648,3.77-13.317,7.505-19.94,11.319c-10.626,6.119-21.223,12.29-31.832,18.44c-0.446,0.067-0.716-0.189-0.954-0.513
			c-0.435-0.733-0.516-1.482-0.105-2.254c3.416-3.096,7.686-4.824,11.596-7.11c12.078-7.06,24.199-14.046,36.357-20.967
			c2.067-1.177,2.801-2.616,2.789-4.973c-0.085-17.221-0.089-34.444,0.004-51.665c0.013-2.385-0.789-3.736-2.846-4.909
			c-14.883-8.492-29.675-17.145-44.555-25.643c-1.257-0.718-2.792-1.15-3.423-2.692c-0.068-0.826-0.09-1.637,0.742-2.153
			c0.131-0.14,0.261-0.28,0.392-0.42c9.974,5.815,19.94,11.642,29.923,17.441c6.917,4.019,13.828,8.052,20.808,11.959
			c1.609,0.901,2.049,1.957,2.043,3.729c-0.066,18.54-0.042,37.08-0.037,55.62C135.207,164.28,135.258,165.189,135.286,166.097z"/>
		<path fill="#FFFEFE" stroke="#109880" stroke-miterlimit="10" d="M82.594,251.321h-2.5c-0.07-16.34-0.03-32.68-0.06-49.02
			c0-0.83,0.48-1.82-0.44-2.52c0.14-0.99,0.67-1.74,1.37-2.4c0.05-0.05,0.11-0.1,0.17-0.15l0.01-0.01c0.09-0.02,0.18-0.03,0.26-0.03
			c0.26-0.01,0.49,0.08,0.68,0.32c0.13,0.13,0.26,0.27,0.39,0.41c0.03,15.33,0.06,30.65,0.09,45.98
			C82.574,246.381,82.624,248.851,82.594,251.321z"/>
		<path fill="#FFFEFE" stroke="#109880" stroke-miterlimit="10" d="M81.06,197.52c-0.08,1.017-0.667,1.705-1.465,2.257
			c-9.185,7.162-18.37,14.324-27.658,21.566c-1.948-3.357-3.754-6.603-5.699-9.762c-0.97-1.576,0.328-1.569,1.129-1.902
			c9.441-3.919,18.889-7.82,28.334-11.73c0.83-0.344,4.323-1.549,5.399-2.019c-0.155-0.089-2.985,0.654-3.14,0.564
			c-11.38-6.565-22.529-12.968-33.647-19.424c-5.485-3.186-11.141-6.08-16.426-9.609c0.178-1.201,1.125-1.488,2.087-1.76
			c2.897,0.618,5.173,2.484,7.653,3.907c13.746,7.888,27.456,15.839,41.194,23.741c0.854,0.491,1.77,0.916,2.321,1.801
			C81.44,195.95,81.284,196.736,81.06,197.52z"/>
		<path fill="#FFFEFE" stroke="#109880" stroke-miterlimit="10" d="M297.69,121.85c-9.19-0.02-14.71,5.56-14.75,14.91
			c-0.04,9.55,5.48,15.4,14.55,15.42c9.08,0.02,14.77-5.85,14.79-15.24C312.29,127.57,306.79,121.87,297.69,121.85z M294.17,148.23
			c-5.19-1.49-8.12-7.09-7.13-13.65c0.96-6.42,5.26-9.75,11.86-9.21c5.88,0.49,9.4,4.81,9.4,11.56
			C308.29,145.69,302.23,150.54,294.17,148.23z"/>
		<path fill="#FFFEFE" stroke="#109880" stroke-miterlimit="10" d="M351.114,227.401c-0.03,7.97-0.05,15.95-0.07,23.92h-3.17
			c0.01-6.57,0.02-13.12,0.07-19.69c0.02-2.78-0.92-4.38-3.31-5.73c-14.78-8.37-29.45-16.92-44.17-25.4
			c-1.14-0.66-2.4-1.17-3.15-2.35c-0.02-0.06-0.05-0.13-0.07-0.19c0-0.02-0.01-0.04-0.02-0.06v-0.01c-0.01-0.05-0.02-0.09-0.03-0.13
			c-0.1-0.4-0.12-0.79,0-1.16c0.04-0.12,0.09-0.24,0.17-0.35c0.05-0.1,0.12-0.2,0.2-0.3l0.11-0.11c0.41-0.25,0.8-0.18,1.16,0.11
			c10.87,6.22,21.75,12.44,32.62,18.68c6,3.44,11.98,6.91,17.99,10.35C350.394,225.531,351.124,226.031,351.114,227.401z"/>
		<path fill="#FFFEFE" stroke="#109880" stroke-miterlimit="10" d="M199.405,136.788c0,4.391-0.103,8.785,0.05,13.17
			c0.062,1.786-0.777,1.738-2.055,1.762c-1.343,0.025-2.104-0.067-2.019-1.796c0.162-3.306,0.021-6.625,0.062-9.939
			c0.014-1.112-0.019-1.808-1.529-1.766c-4.305,0.118-8.615,0.086-12.922,0.013c-1.224-0.021-1.526,0.374-1.502,1.543
			c0.071,3.478-0.084,6.963,0.069,10.436c0.083,1.866-1.053,1.443-2.053,1.473c-1.06,0.032-2.033,0.277-2.013-1.513
			c0.099-8.78,0.102-17.563-0.001-26.343c-0.022-1.857,1.048-1.45,2.051-1.475c1.052-0.026,2.11-0.3,2.016,1.51
			c-0.159,3.057-0.016,6.128-0.058,9.193c-0.015,1.112,0.019,1.808,1.529,1.766c4.305-0.118,8.615-0.086,12.922-0.013
			c1.224,0.021,1.529-0.374,1.502-1.543c-0.074-3.146,0.089-6.301-0.069-9.441c-0.094-1.867,1.053-1.443,2.053-1.473
			c1.061-0.032,2.071-0.28,2.013,1.514C199.31,128.17,199.405,132.48,199.405,136.788z"/>
		<path fill="#FFFEFE" stroke="#109880" stroke-miterlimit="10" d="M340.622,137.026c0,4.308-0.102,8.619,0.049,12.922
			c0.062,1.767-0.745,1.764-2.044,1.773c-1.322,0.009-2.115-0.038-2.03-1.786c0.163-3.389-0.004-6.792,0.075-10.187
			c0.028-1.208-0.347-1.532-1.53-1.514c-4.307,0.067-8.616,0.069-12.922-0.001c-1.208-0.02-1.538,0.347-1.513,1.531
			c0.074,3.478-0.086,6.963,0.071,10.435c0.084,1.859-1.036,1.466-2.044,1.482c-1.038,0.016-2.045,0.316-2.024-1.501
			c0.102-8.78,0.103-17.563,0-26.343c-0.022-1.846,1.028-1.475,2.041-1.484c1.031-0.01,2.122-0.336,2.027,1.498
			c-0.161,3.14,0.01,6.295-0.072,9.441c-0.031,1.208,0.347,1.532,1.53,1.514c4.307-0.067,8.616-0.069,12.922,0.001
			c1.208,0.02,1.542-0.347,1.513-1.531c-0.077-3.146,0.091-6.301-0.07-9.441c-0.096-1.861,1.036-1.465,2.043-1.482
			c1.039-0.017,2.083-0.318,2.024,1.502C340.525,128.242,340.622,132.635,340.622,137.026z"/>
		<path fill="#FFFEFE" stroke="#109880" stroke-miterlimit="10" d="M41.282,228.51c0,4.308-0.101,8.619,0.049,12.922
			c0.061,1.752-0.719,1.786-2.035,1.782c-1.305-0.004-2.125-0.013-2.039-1.777c0.165-3.388-0.002-6.792,0.075-10.187
			c0.027-1.195-0.324-1.542-1.521-1.523c-4.307,0.069-8.616,0.069-12.922,0c-1.195-0.019-1.549,0.325-1.523,1.522
			c0.076,3.478-0.085,6.963,0.072,10.435c0.084,1.847-1.016,1.489-2.035,1.49c-1.023,0.002-2.055,0.343-2.034-1.491
			c0.103-8.78,0.103-17.563,0-26.343c-0.021-1.831,1.006-1.498,2.032-1.493c1.016,0.005,2.132-0.362,2.036,1.489
			c-0.162,3.14,0.008,6.295-0.071,9.441c-0.03,1.195,0.324,1.543,1.521,1.523c4.307-0.069,8.616-0.069,12.922,0
			c1.195,0.019,1.553-0.324,1.523-1.522c-0.08-3.146,0.091-6.301-0.071-9.441c-0.096-1.848,1.016-1.488,2.035-1.49
			c1.023-0.003,2.094-0.347,2.033,1.493C41.184,219.725,41.282,224.119,41.282,228.51z"/>
		<path fill="#FFFEFE" stroke="#109880" stroke-miterlimit="10" d="M246.944,251.321h-3.45c0-7.98,0.01-15.95,0.01-23.92l0.16-0.14
			c0.73-0.39,1.45-0.38,2.18,0h0.29c0.11,0.1,0.2,0.22,0.29,0.33c0.57,0.8,0.5,1.77,0.51,2.7
			C246.944,237.301,246.944,244.311,246.944,251.321z"/>
		<path fill="#FFFEFE" stroke="#109880" stroke-miterlimit="10" d="M30.006,166.035c-0.706,0.475-1.413,0.95-2.119,1.425
			c-0.877-0.611-0.451-1.521-0.452-2.279c-0.027-19.269-0.029-38.538,0.004-57.806c0.001-0.866-0.584-2.086,0.899-2.468
			c0.532,0.573,1.064,1.147,1.596,1.72c0.781,0.895,0.702,2,0.703,3.062c0.022,17.834,0.023,35.669,0.001,53.503
			C30.636,164.177,30.672,165.189,30.006,166.035z"/>
		<path fill="#FFFEFE" stroke="#109880" stroke-miterlimit="10" d="M298.83,195.949c-0.299-0.007-0.598-0.013-0.897-0.02
			c-0.358,0.241-0.738,0.433-1.167,0.515c-0.325-0.179-0.65-0.359-0.975-0.538c0.048-10.577,0.097-21.154,0.144-31.73
			c0.005-1.157,0.019-2.315-0.005-3.472c-0.018-0.872-0.06-1.557,1.215-1.605c1.453-0.055,1.336,0.759,1.335,1.709
			c-0.013,7.523-0.083,15.047,0.023,22.568C298.562,187.566,298.013,191.778,298.83,195.949z"/>
		<path fill="#FFFEFE" stroke="#109880" stroke-miterlimit="10" d="M160.801,143.554c2.06,3.543,3.932,6.736,5.766,9.95
			c0.232,0.407,0.974,1.001,0.027,1.372c-0.671,0.263-1.517,1.029-2.156-0.05c-1.719-2.904-3.481-5.788-5.054-8.77
			C158.705,144.768,160.473,144.738,160.801,143.554z"/>
		<path fill="#FFFEFE" stroke="#109880" stroke-miterlimit="10" d="M152.487,151.266c0.324,0.44,0.585,0.743,0.788,1.081
			c0.883,1.474,1.781,2.941,2.604,4.448c0.28,0.512,1.277,1.184-0.009,1.684c-0.798,0.31-1.628,0.771-2.236-0.472
			c-0.717-1.465-1.641-2.829-2.457-4.247C150.311,152.255,151.938,152.149,152.487,151.266z"/>
		<path fill="#FFFEFE" stroke="#109880" stroke-miterlimit="10" d="M145.967,161.283c-0.272,0.918-1.124,0.936-1.763,0.992
			c-1.18,0.102-1.411-1.076-1.51-1.795c-0.116-0.839,0.945-1.669,1.529-1.56C145.28,159.118,145.335,160.504,145.967,161.283z"/>
		<path fill="#FFFEFE" stroke="#109880" stroke-miterlimit="10" d="M81.553,77.111l-0.239,0.03l-0.24-0.018
			c0.144-0.785-0.895-2.141,1.003-2.08C81.759,75.696,81.476,76.358,81.553,77.111z"/>
		<path fill="#FFFEFE" stroke="#109880" stroke-miterlimit="10" d="M297.376,197.877c-0.17,0.018-0.34,0.037-0.51,0.055
			c-0.032-0.496-0.065-0.992-0.098-1.488c0.26-0.46,0.704-0.505,1.165-0.515C297.537,196.518,297.261,197.142,297.376,197.877z"/>
		<path fill="#FFFEFE" stroke="#109880" stroke-miterlimit="10" d="M245.841,227.261c-0.725,0-1.449,0-2.174,0
			C244.392,226.342,245.117,226.257,245.841,227.261z"/>
		<path fill="#FFFEFE" stroke="#109880" stroke-miterlimit="10" d="M81.052,195.469c0.173,0.003,0.347,0.007,0.52,0.01
			c-0.099,0.743,0.14,1.401,0.509,2.028c-0.34,0.005-0.681,0.009-1.021,0.013C80.479,196.839,81.338,196.152,81.052,195.469z"/>
		<path fill="#FFFEFE" stroke="#109880" stroke-miterlimit="10" d="M123.372,111.576c-0.636,0.549-0.419,2.25-2.176,1.226
			c-12.96-7.557-25.953-15.056-38.933-22.578c-0.746-0.432-1.721-0.648-0.971-1.978c0.713-1.267,1.358-0.743,2.174-0.271
			c12.77,7.387,25.549,14.759,38.31,22.162C122.359,110.474,123.22,110.594,123.372,111.576z"/>
		<path fill="#FFFEFE" stroke="#109880" stroke-miterlimit="10" d="M298.175,208.021c0.371,0.209,0.733,0.408,1.091,0.614
			c12.939,7.47,25.878,14.941,38.818,22.411c0.754,0.435,1.689,0.663,0.94,1.947c-0.732,1.254-1.411,0.668-2.203,0.212
			c-12.874-7.416-25.755-14.823-38.616-22.262c-0.529-0.306-1.69-0.339-1.185-1.458
			C297.268,208.934,297.439,208.222,298.175,208.021z"/>
		<path fill="#FFFEFE" stroke="#109880" stroke-miterlimit="10" d="M256.964,234.971v16.35h-2.57c0-5.44,0-10.89,0.02-16.34
			c0-0.8-0.45-1.88,1.12-1.95C257.114,232.971,256.974,233.951,256.964,234.971z"/>
	</g>
	<polygon fill="#109880" points="51.936,221.343 45.905,210.542 80.853,196.033 82.081,197.506 	"/>
</g>
</svg>
